<svg width="67" height="85" viewBox="0 0 67 85" fill="none" xmlns="http://www.w3.org/2000/svg">
<path d="M14.1582 4.71484C13.0254 4.71484 12.3027 5.10547 11.9902 5.88672C11.6777 6.6289 11.7949 7.46875 12.3418 8.40625L22.7129 26.9805L33.8457 8.17187C34.3926 7.27343 34.627 6.47265 34.5488 5.76953C34.4707 5.0664 33.9238 4.71484 32.9082 4.71484V4.36328H39.002V4.71484C38.377 4.71484 37.7324 5.125 37.0684 5.94531C36.4043 6.72656 35.7793 7.625 35.1934 8.64062L23.709 28.0352V41.5703C23.709 42.7422 23.8066 43.6406 24.002 44.2656C24.1973 44.8906 24.8027 45.2031 25.8184 45.2031V45.3789H14.3926V45.2031C15.4082 45.2031 16.0137 44.8906 16.209 44.2656C16.4043 43.6406 16.502 42.7422 16.502 41.5703V29.0312L4.72461 8.46484C4.09961 7.37109 3.45508 6.47265 2.79102 5.76953C2.16602 5.0664 1.50195 4.71484 0.798828 4.71484V4.36328H14.1582V4.71484Z" fill="white"/>
<path d="M40.8184 28.2402C44.0605 28.2402 47.0488 28.748 49.7832 29.7637C52.5176 30.7793 54.8809 32.2051 56.873 34.041C58.8652 35.877 60.4277 38.0645 61.5606 40.6035C62.6934 43.1426 63.2598 45.9355 63.2598 48.9824C63.2598 51.9512 62.7129 54.6855 61.6191 57.1855C60.5254 59.6855 58.9824 61.834 56.9902 63.6309C55.0371 65.3887 52.6934 66.7754 49.959 67.791C47.2246 68.7676 44.2363 69.2559 40.9941 69.2559H28.3379V68.9043C29.3535 68.9043 29.959 68.6309 30.1543 68.084C30.3496 67.498 30.4473 66.6191 30.4473 65.4473V32.0488C30.4473 30.877 30.3496 30.0176 30.1543 29.4707C29.959 28.8848 29.3535 28.5918 28.3379 28.5918V28.2402H40.8184ZM40.291 67.9668C45.0176 67.9668 48.748 66.3652 51.4824 63.1621C54.2559 59.9199 55.6426 55.1738 55.6426 48.9238C55.6426 45.7598 55.2715 42.9863 54.5293 40.6035C53.7871 38.1816 52.7324 36.1504 51.3652 34.5098C50.0371 32.8691 48.416 31.6387 46.502 30.8184C44.5879 29.959 42.459 29.5293 40.1152 29.5293H37.6543V67.9668H40.291Z" fill="white"/>
</svg>
