<svg width="66" height="85" viewBox="0 0 66 85" fill="none" xmlns="http://www.w3.org/2000/svg">
<path d="M13.6582 5.21484C12.5254 5.21484 11.8027 5.60547 11.4902 6.38672C11.1777 7.1289 11.2949 7.96875 11.8418 8.90625L22.2129 27.4805L33.3457 8.67187C33.8926 7.77343 34.127 6.97265 34.0488 6.26953C33.9707 5.5664 33.4238 5.21484 32.4082 5.21484V4.86328H38.502V5.21484C37.877 5.21484 37.2324 5.625 36.5684 6.44531C35.9043 7.22656 35.2793 8.125 34.6934 9.14062L23.209 28.5352V42.0703C23.209 43.2422 23.3066 44.1406 23.502 44.7656C23.6973 45.3906 24.3027 45.7031 25.3184 45.7031V45.8789H13.8926V45.7031C14.9082 45.7031 15.5137 45.3906 15.709 44.7656C15.9043 44.1406 16.002 43.2422 16.002 42.0703V29.5312L4.22461 8.96484C3.59961 7.87109 2.95508 6.97265 2.29102 6.26953C1.66602 5.5664 1.00195 5.21484 0.298828 5.21484V4.86328H13.6582V5.21484Z" fill="black"/>
<path d="M40.3184 28.7402C43.5605 28.7402 46.5488 29.248 49.2832 30.2637C52.0176 31.2793 54.3809 32.7051 56.373 34.541C58.3652 36.377 59.9277 38.5645 61.0606 41.1035C62.1934 43.6426 62.7598 46.4355 62.7598 49.4824C62.7598 52.4512 62.2129 55.1855 61.1191 57.6855C60.0254 60.1855 58.4824 62.334 56.4902 64.1309C54.5371 65.8887 52.1934 67.2754 49.459 68.291C46.7246 69.2676 43.7363 69.7559 40.4941 69.7559H27.8379V69.4043C28.8535 69.4043 29.459 69.1309 29.6543 68.584C29.8496 67.998 29.9473 67.1191 29.9473 65.9473V32.5488C29.9473 31.377 29.8496 30.5176 29.6543 29.9707C29.459 29.3848 28.8535 29.0918 27.8379 29.0918V28.7402H40.3184ZM39.791 68.4668C44.5176 68.4668 48.248 66.8652 50.9824 63.6621C53.7559 60.4199 55.1426 55.6738 55.1426 49.4238C55.1426 46.2598 54.7715 43.4863 54.0293 41.1035C53.2871 38.6816 52.2324 36.6504 50.8652 35.0098C49.5371 33.3691 47.916 32.1387 46.002 31.3184C44.0879 30.459 41.959 30.0293 39.6152 30.0293H37.1543V68.4668H39.791Z" fill="black"/>
</svg>
